# xmcd
#
# Track frame offsets:
#	150
#	13105
#	26765
#	43600
#	59535
#	75617
#	91727
#	106672
#	125610
#	146527
#	162322
#	192785
#
# Disc length: 2640 seconds
#
# Revision: 0
# Processed by: cddbd v1.5.2PL0 Copyright (c) Steve Scherf et al.
# Submitted via: dBpowerAMP V4.0
#
DISCID=960a4e0c
DTITLE=Alabama - In The Mood:The Love Songs
DYEAR=2003
DGENRE=Country
TTITLE0=Here We Are
TTITLE1=Face To Face
TTITLE2=Take Me Down
TTITLE3=In Pictures
TTITLE4=Close Enough To Perfect
TTITLE5=Forever's As Far As I'll Go
TTITLE6=Love In The First Degree
TTITLE7=There's No Way
TTITLE8=God  Must Have Spent A Little More Time On You
TTITLE9=Nothing Comes Close
TTITLE10=Once Upon A Lifetime
TTITLE11=DATA
EXTD=
EXTT0=
EXTT1=
EXTT2=
EXTT3=
EXTT4=
EXTT5=
EXTT6=
EXTT7=
EXTT8=
EXTT9=
EXTT10=
EXTT11=
PLAYORDER=
